<svg width="1440" height="997" viewBox="0 0 1440 997" fill="none" xmlns="http://www.w3.org/2000/svg">
<rect width="1440" height="997" fill="#191919"/>
<mask id="mask0_1455_139" style="mask-type:alpha" maskUnits="userSpaceOnUse" x="0" y="0" width="1440" height="997">
<rect width="1440" height="997" fill="#191919"/>
</mask>
<g mask="url(#mask0_1455_139)">
<path d="M86.5 1004.57L47.2383 863.051C45.661 857.366 48.4505 851.377 53.8176 848.927L325.602 724.839C331.816 722.002 334.412 714.558 331.309 708.472L277.928 603.764C274.926 597.877 277.249 590.671 283.124 587.646L655.39 395.908C663.519 391.721 664.166 380.343 656.562 375.263L537.297 295.569C530.358 290.932 530.153 280.805 536.898 275.892L824.585 66.3318C829.83 62.5116 831.088 55.2147 827.425 49.8588L781.5 -17.3018" stroke="white" stroke-opacity="0.1" stroke-width="2"/>
<path d="M795 1001.33L535.055 834.082C526.955 828.87 527.986 816.721 536.849 812.949L720.296 734.872C727.499 731.806 729.886 722.777 725.138 716.552L646.988 614.092C642.359 608.024 644.497 599.234 651.395 595.969L1012.19 425.191C1021.41 420.825 1021.32 407.673 1012.04 403.431L871.493 339.179C862.756 335.184 862.021 323.055 870.211 318.034L1090.24 183.162C1096.28 179.462 1097.81 171.365 1093.55 165.71L1041.47 96.5963C1038.01 91.9968 1038.3 85.5837 1042.16 81.3164L1133.5 -19.4644" stroke="white" stroke-opacity="0.1" stroke-width="2"/>
<path d="M961 992.134L1015.92 937.496C1020.24 933.199 1020.65 926.347 1016.88 921.561L896.893 769.307C892.261 763.43 894.079 754.793 900.688 751.282L965.079 717.071C970.451 714.217 972.838 707.793 970.632 702.123L947.77 643.359C945.606 637.797 947.858 631.491 953.055 628.558L1282.47 442.643C1289.75 438.532 1290.7 428.42 1284.32 423.024L1224.29 372.326C1218.47 367.41 1218.64 358.387 1224.65 353.699L1288.8 303.622C1293.72 299.783 1294.87 292.814 1291.46 287.592L1195.85 141.498C1192.97 137.093 1193.29 131.322 1196.65 127.268L1321 -22.708" stroke="white" stroke-opacity="0.1" stroke-width="2"/>
<path d="M225.5 -15.6797L105.728 130.211C100.484 136.598 103.115 146.251 110.875 149.093L262.399 204.598C270.492 207.562 272.913 217.838 266.996 224.104L143.629 354.756C138.571 360.113 139.489 368.721 145.564 372.889L251.197 445.379C257.674 449.824 258.204 459.191 252.269 464.339L-31.5 710.443" stroke="white" stroke-opacity="0.1" stroke-width="2"/>
<path d="M1206 1035.93L1284.14 922.439C1287.72 917.237 1286.65 910.149 1281.7 906.228L1146.04 798.773C1139.77 793.806 1140.02 784.212 1146.54 779.581L1322.94 654.344C1327.84 650.864 1329.41 644.295 1326.61 638.974L1307.57 602.76C1304.69 597.291 1306.44 590.531 1311.61 587.142L1466.5 485.524" stroke="white" stroke-opacity="0.1" stroke-width="2"/>
<path d="M296.5 1005.65L241.074 933.445C236.751 927.814 238.235 919.681 244.268 915.94L329.943 862.813C334.892 859.744 341.33 860.671 345.212 865.012L389.1 914.093C393.479 918.99 400.981 919.456 405.932 915.138L418.521 904.16C423.683 899.659 431.558 900.383 435.812 905.75L515 1005.65" stroke="white" stroke-opacity="0.1" stroke-width="2"/>
</g>
</svg>
