<svg width="144" height="17" viewBox="0 0 144 17" fill="none" xmlns="http://www.w3.org/2000/svg">
<path d="M6.43361 5.57813C6.43361 6.26953 8.34377 6.36328 10.8164 6.48047C15.211 6.70313 21.3867 7.00781 21.375 10.957C21.375 15.457 16.2188 16.5234 10.6875 16.5234C5.16798 16.5117 1.23978e-05 16.5234 1.23978e-05 16.5234L1.26562 12.4922C1.26562 12.4922 8.76564 12.4922 10.6875 12.4922C12.5977 12.4922 14.9414 12.1758 14.9414 10.957C14.9414 10.2656 13.0313 10.1602 10.5586 10.043C6.16408 9.82031 -0.0117021 9.51563 1.66527e-05 5.57813C1.66527e-05 1.07813 5.26562 0.148926 10.6875 0.148926L23.0156 0.386884V4.04297C23.0156 4.04297 12.6094 4.04297 10.6875 4.04297C8.77736 4.04297 6.43361 4.32422 6.43361 5.57813Z" fill="white"/>
<path d="M23.0156 16.1367V0.386884L30.7031 0.386719L36.8438 8.26172L42.9961 0.386719H50.6719V16.1367H44.5313V7.73438L38.3789 16.1367H35.3086L29.1563 7.73438V16.1367H23.0156Z" fill="white"/>
<path d="M63.2461 4.96875L61.0781 9.6211H65.4024L63.2461 4.96875ZM51.1406 16.1602L59.5899 0.410156H66.8906L75.3399 16.1602H68.4258L67.1836 13.4648H59.2969L58.0547 16.1602H51.1406Z" fill="white"/>
<path d="M81.2461 5.57813C81.2461 6.26953 83.1563 6.36328 85.6289 6.48047C90.0234 6.70313 96.1992 7.00781 96.1875 10.957C96.1875 15.457 91.0313 16.5234 85.5 16.5234C79.9805 16.5117 68.4258 16.1602 68.4258 16.1602L68.2656 12.1489C68.2656 12.1489 83.5781 12.4922 85.5 12.4922C87.4102 12.4922 89.7539 12.1758 89.7539 10.957C89.7539 10.2656 87.8438 10.1602 85.3711 10.043C80.9766 9.82031 74.8008 9.51563 74.8125 5.57813C74.8125 1.07813 79.9688 0 85.5 0C91.0195 0.0351562 103.969 0.386719 103.969 0.386719V4.04297C103.969 4.04297 87.4219 4.04297 85.5 4.04297C83.5899 4.04297 81.2461 4.32422 81.2461 5.57813Z" fill="white"/>
<path d="M113.191 10.7578H103.969V16.1367H97.8281V0.386719H103.969V5.76563H113.191V0.386719H119.344V16.1367H113.191V10.7578Z" fill="white"/>
<path d="M137.59 8.46094V0.386719H143.742V8.84766C143.766 14.8008 138.891 16.5117 132.984 16.5234C127.078 16.5117 122.203 14.8008 122.227 8.84766V0.386719H128.367V8.46094C128.344 11.0508 130.465 11.4961 132.984 11.5313C135.492 11.4961 137.625 11.0508 137.59 8.46094Z" fill="white"/>
</svg>
